Coordinates
version=1
nRows=29
nColumns=24
inDegrees=yes

Units are S.I. units (second, meters, Newtons, ...)
Angles are in degrees.

endheader
time	pelvis_tilt	pelvis_list	pelvis_rotation	pelvis_tx	pelvis_ty	pelvis_tz	hip_flexion_r	hip_adduction_r	hip_rotation_r	knee_angle_r	ankle_angle_r	subtalar_angle_r	mtp_angle_r	hip_flexion_l	hip_adduction_l	hip_rotation_l	knee_angle_l	ankle_angle_l	subtalar_angle_l	mtp_angle_l	lumbar_extension	lumbar_bending	lumbar_rotation
      0.72383333	      1.15938290	     -7.26630499	      3.28087694	     -0.45962314	      1.00345589	      0.30450947	     10.94034423	     13.48167354	      1.98651089	    -16.11398824	     -0.67576131	    -21.14812640	     -1.89158572	     17.74096630	     -7.79172407	      1.61706586	    -69.07749224	     -8.06906668	     -6.37714361	      7.51877516	     -4.99353854	     10.47515277	      1.04757059
      0.72800000	      1.21406133	     -7.18756143	      3.30146514	     -0.45451981	      1.00441054	      0.30443196	     10.35242532	     13.41002715	      2.05730619	    -15.76266094	     -0.55558140	    -20.96759639	     -3.01025113	     18.32643603	     -7.62698452	      1.74423391	    -68.96287488	     -7.46501552	     -7.02348793	      4.55024400	     -5.09992776	     10.38723452	      1.16479034
      0.73216667	      1.25953064	     -7.11326398	      3.32697203	     -0.44940914	      1.00532815	      0.30436984	      9.77425691	     13.34505910	      2.12223268	    -15.41208791	     -0.42046909	    -20.95087565	     -3.01947826	     18.90067350	     -7.47164841	      1.87116379	    -68.77017370	     -6.84045096	     -7.58491223	      4.54591121	     -5.17892214	     10.31001662	      1.17726069
      0.73633333	      1.31215769	     -7.01924373	      3.33776268	     -0.44428954	      1.00627892	      0.30430420	      9.17527777	     13.25873391	      2.21123835	    -15.04024312	     -0.31627231	    -20.89319740	     -3.03346356	     19.42814884	     -7.29364504	      1.97459784	    -68.47711191	     -6.27122788	     -8.17085931	      4.52970430	     -5.27469338	     10.21269981	      1.21976351
      0.74050000	      1.37646206	     -6.90086976	      3.34086105	     -0.43914736	      1.00724857	      0.30423171	      8.55435489	     13.14328436	      2.29838735	    -14.65777551	     -0.20275338	    -20.79903823	     -3.06060350	     19.90531030	     -7.09129009	      2.05642283	    -68.08900116	     -5.75339128	     -8.73763434	      4.48927300	     -5.37127393	     10.09397901	      1.30322559
      0.74466667	      1.39183846	     -6.81118931	      3.32255893	     -0.43403177	      1.00808949	      0.30418285	      8.00588114	     13.05633325	      2.38121199	    -14.30879209	     -0.09100968	    -20.72379519	     -3.07425592	     20.42450904	     -6.92739195	      2.12183531	    -67.66059719	     -5.14030317	     -9.20255288	      4.46793086	     -5.41172772	     10.00622582	      1.35804421
      0.74883333	      1.46326119	     -6.67311731	      3.30317837	     -0.42890305	      1.00904728	      0.30413140	      7.37585896	     12.91926617	      2.48474265	    -13.92783097	      0.01779517	    -20.59429832	     -3.10860935	     20.83276929	     -6.71249191	      2.16648721	    -67.11267936	     -4.65534814	     -9.71650991	      4.40494106	     -5.53907096	      9.85180026	      1.47379291
      0.75300000	      1.44015903	     -6.56385781	      3.26420317	     -0.42380022	      1.00978857	      0.30411266	      6.87309725	     12.80872460	      2.57842434	    -13.59087783	      0.13112258	    -20.50899137	     -3.12288963	     21.33898483	     -6.53268156	      2.20335275	    -66.53718757	     -4.07135083	    -10.09948134	      4.37807139	     -5.54937253	      9.72378658	      1.53186015
      0.75716667	      1.50734141	     -6.43248812	      3.21574992	     -0.41867589	      1.01067081	      0.30407001	      6.25260015	     12.67444594	      2.68474992	    -13.21929510	      0.24128181	    -20.35325952	     -3.16909378	     21.69602680	     -6.33821204	      2.21040481	    -65.84923828	     -3.60341801	    -10.52747078	      4.28531611	     -5.66403673	      9.59273154	      1.68916837
      0.76133333	      1.53271549	     -6.30634888	      3.15471007	     -0.41356950	      1.01143735	      0.30404967	      5.68946864	     12.54410438	      2.79213329	    -12.87065352	      0.35423829	    -20.21772759	     -3.21864544	     22.08095776	     -6.15465012	      2.20490669	    -65.11166127	     -3.09564874	    -10.86855111	      4.18485683	     -5.73474071	      9.45577821	      1.81430145
      0.76550000	      1.54105033	     -6.17465161	      3.08162711	     -0.40846011	      1.01215239	      0.30403957	      5.14602919	     12.40595689	      2.90468060	    -12.52502982	      0.46477056	    -20.08904489	     -3.26869072	     22.45471481	     -5.97010780	      2.18325827	    -64.30239470	     -2.61175564	    -11.17096188	      4.08110567	     -5.78332576	      9.30960385	      1.93840895
      0.76966667	      1.56697139	     -6.05160473	      3.00688123	     -0.40337108	      1.01283467	      0.30402493	      4.58552283	     12.27646125	      3.02262160	    -12.17873543	      0.57477497	    -19.95600354	     -3.32484423	     22.78784143	     -5.79833936	      2.15948798	    -63.43296257	     -2.13829023	    -11.42621647	      3.96147768	     -5.86223038	      9.18156099	      2.07521168
      0.77383333	      1.51908390	     -5.93273756	      2.90469974	     -0.39828022	      1.01337070	      0.30403644	      4.11954506	     12.14690988	      3.15160920	    -11.86397314	      0.67049520	    -19.85876465	     -3.35478157	     23.17544975	     -5.63704546	      2.11301243	    -62.50651742	     -1.66185767	    -11.63743738	      3.89507978	     -5.84932128	      9.05796742	      2.15816837
      0.77800000	      1.54031050	     -5.80841620	      2.80796106	     -0.39319173	      1.01396686	      0.30403990	      3.56552970	     12.01376139	      3.28536014	    -11.51908105	      0.77243518	    -19.73706830	     -3.39106655	     23.45803437	     -5.47887747	      2.05315728	    -61.50625475	     -1.24043621	    -11.82455776	      3.81066105	     -5.92232594	      8.92136045	      2.29161118
      0.78216667	      1.56102571	     -5.69933871	      2.72819902	     -0.38809103	      1.01450599	      0.30402599	      3.00448423	     11.89291905	      3.40044962	    -11.15184954	      0.88755428	    -19.60041430	     -3.45604655	     23.72462488	     -5.33451920	      2.01171627	    -60.45032062	     -0.88183117	    -11.97577323	      3.65718928	     -5.99001414	      8.79723934	      2.49971225
      0.78633333	      1.49368503	     -5.58947311	      2.60752907	     -0.38301014	      1.01486713	      0.30405032	      2.56642452	     11.76775154	      3.54281260	    -10.84404153	      0.97822542	    -19.50355336	     -3.48707561	     24.05909185	     -5.19529428	      1.94078331	    -59.34231243	     -0.49163524	    -12.08440331	      3.58049072	     -5.95791153	      8.68288497	      2.58430771
      0.79050000	      1.50373138	     -5.49749230	      2.51673501	     -0.37790418	      1.01528357	      0.30404271	      2.01966380	     11.66182282	      3.65831151	    -10.47697704	      1.08551200	    -19.38227370	     -3.54886515	     24.29062055	     -5.08027210	      1.87777261	    -58.17549301	     -0.18323391	    -12.17998008	      3.42553300	     -6.00900814	      8.57519951	      2.78453033
      0.79466667	      1.48427429	     -5.39960909	      2.40145036	     -0.37280145	      1.01562153	      0.30405544	      1.51712239	     11.54702653	      3.79513957	    -10.13858150	      1.17654201	    -19.28498115	     -3.59645094	     24.52197676	     -4.96617801	      1.79159576	    -56.94584482	      0.12425553	    -12.23865901	      3.30302589	     -6.02447225	      8.46859922	      2.91388632
      0.79883333	      1.43675985	     -5.29367003	      2.28421423	     -0.36772211	      1.01587817	      0.30404306	      1.05388822	     11.41922912	      3.94241237	     -9.81533234	      1.26362201	    -19.18387530	     -3.62982337	     24.75502983	     -4.83059901	      1.72264020	    -55.65087650	      0.39388470	    -12.27927673	      3.21168199	     -6.02307426	      8.35985833	      3.02850510
      0.80300000	      1.43349929	     -5.22215270	      2.19739986	     -0.36260704	      1.01612162	      0.30400805	      0.52385522	     11.32790758	      4.04959315	     -9.44501754	      1.36883631	    -19.07384401	     -3.69909372	     24.92968885	     -4.73548964	      1.66737187	    -54.31661309	      0.59824598	    -12.32340330	      3.02296514	     -6.06212903	      8.28696724	      3.25687579
      0.80716667	      1.37407723	     -5.14108740	      2.07194912	     -0.35750819	      1.01624627	      0.30401521	      0.07686037	     11.22362977	      4.19046925	     -9.12470631	      1.45224552	    -18.98530200	     -3.72884716	     25.13142046	     -4.64203883	      1.57630799	    -52.92383770	      0.80878573	    -12.30254498	      2.93715937	     -6.03430660	      8.20341741	      3.33619866
      0.81133333	      1.37142353	     -5.06005212	      1.97294375	     -0.35235380	      1.01643129	      0.30398488	     -0.45299265	     11.11752457	      4.29169940	     -8.75991571	      1.54474564	    -18.88921923	     -3.77677970	     25.23750729	     -4.54654717	      1.49067055	    -51.45632538	      0.93747709	    -12.31727646	      2.79971327	     -6.05225174	      8.10852641	      3.51205185
      0.81550000	      1.34928098	     -4.99223551	      1.88385604	     -0.34722249	      1.01650219	      0.30392043	     -0.95807811	     11.02262442	      4.39049836	     -8.39565136	      1.64606497	    -18.78604456	     -3.83658130	     25.35322455	     -4.45271755	      1.43151159	    -49.95905637	      1.04462357	    -12.30842726	      2.62735688	     -6.07460252	      8.05118893	      3.68936634
      0.81966667	      1.27138593	     -4.92888038	      1.77127000	     -0.34207585	      1.01646309	      0.30389316	     -1.38515716	     10.93094219	      4.50254218	     -8.07314927	      1.73543551	    -18.70214646	     -3.86928865	     25.49770259	     -4.37504020	      1.34835505	    -48.40567412	      1.12819575	    -12.24068090	      2.53016479	     -6.01500331	      7.98312397	      3.78083505
      0.82383333	      1.26719615	     -4.87337117	      1.68279294	     -0.33690428	      1.01648228	      0.30381775	     -1.91021361	     10.84608801	      4.58289284	     -7.70827480	      1.83143719	    -18.61072396	     -3.91239807	     25.53411647	     -4.30183570	      1.27405289	    -46.79619229	      1.15561674	    -12.20531859	      2.40409642	     -6.03695319	      7.93436822	      3.93212569
      0.82800000	      1.21019861	     -4.81153495	      1.58930532	     -0.33172008	      1.01638135	      0.30374270	     -2.36548104	     10.75250513	      4.66389531	     -7.37338127	      1.93241592	    -18.51868491	     -3.94517331	     25.59882732	     -4.21696363	      1.20764901	    -45.13609011	      1.14880858	    -12.13073587	      2.30539360	     -5.99917679	      7.86903713	      4.04661725
      0.83216667	      1.18690149	     -4.76404409	      1.50493472	     -0.32652605	      1.01628044	      0.30365181	     -2.85996973	     10.67381646	      4.72553269	     -7.02822474	      2.03349043	    -18.42179356	     -3.97998664	     25.60210029	     -4.14985780	      1.13895586	    -43.43192203	      1.09967890	    -12.06203147	      2.20288404	     -5.99555296	      7.82597177	      4.17404037
      0.83633333	      1.19824803	     -4.73160419	      1.44770730	     -0.32130357	      1.01616842	      0.30350669	     -3.40127369	     10.61051597	      4.75506047	     -6.66180810	      2.14758134	    -18.29934633	     -4.03615545	     25.54586742	     -4.08527098	      1.10123896	    -41.68988266	      1.00971605	    -12.02453527	      2.04771917	     -6.02656416	      7.80273541	      4.34224618
      0.84050000	      1.15946344	     -4.67964790	      1.35507322	     -0.31606286	      1.01595946	      0.30341816	     -3.86826454	     10.52462456	      4.79343746	     -6.34428612	      2.25343201	    -18.20301215	     -4.07265482	     25.50799893	     -4.02246244	      1.00435497	    -39.90167326	      0.89098553	    -11.89147062	      1.94711908	     -6.00371107	      7.75296630	      4.42743366
